<?xml version="1.0" encoding="UTF-8"?>
<svg id="a" data-name="Ebene 1" xmlns="http://www.w3.org/2000/svg" width="300" height="300" viewBox="0 0 300 300">
  <defs>
    <style>
      .b {
        fill: none;
        stroke: #010101;
        stroke-linecap: round;
        stroke-miterlimit: 10;
        stroke-width: 6px;
      }

      .c, .d {
        stroke-width: 0px;
      }

      .d {
        fill: #010101;
      }
    </style>
  </defs>
  <circle class="c" cx="128.5" cy="36.5" r="21.5"/>
  <path class="d" d="m140.49,145.84c41.03,19.96,58.11,72.22,65.62,114.04,1.19,7.91,2.39,16,3.06,23.95.08,1.12-1.53,1.68-2.05.5-10.07-22.85-20.47-45.99-33.86-67.12-8.08-12.82-16.94-23.86-27.33-33.99-5.79-5.91-12.43-11.01-18.93-16.08-11.62-9.76-.2-27.64,13.5-21.31h0Z"/>
  <path class="d" d="m118.75,153.85c2.91,14.26,2.18,29.07-.77,43.26-2.19,9.51-5.26,19.03-9.01,28.03-3.35,7.99-7.5,16.42-11.92,23.88-7.3,12.65-15.91,24.59-25.35,35.61-.39.45-1.06.5-1.51.11-.35-.3-.46-.79-.3-1.19,6.76-18.9,13.31-37.31,17.72-56.73,3.04-13.03,4.81-26.78,5.37-39.78.64-10.43.35-20.73.57-31.15.92-15.1,21.93-16.68,25.19-2.03h0Z"/>
  <path class="d" d="m248.17,69.47c-8.59-1.38-18.01-2.64-26.67-3.72-17.74-2.19-35.53-3.84-53.33-5.32-8.9-.59-17.8-.9-26.67.48-2.48.43-4.36,1.65-5.64,3.27-2.07-.3-4.12-.58-6.09-.84-12.36-1.72-24.77-3.05-37.17-4.35-8.27-.68-16.55-1.03-24.78.55-10.52,2.2-11.46,16.92-1.13,20.35,8.45,2.83,17.19,2.87,25.91,2.13,12.4-1.31,24.82-2.64,37.17-4.53,2.27-.34,4.56-.69,6.85-1.05,1.04,1,2.38,1.8,4.04,2.26,9.05,2.38,18.28,2.38,27.5,1.76,20.02-1.64,40.1-3.67,60-6.57,6.47-.98,13.61-2.1,20-3.36.22-.04.4-.21.44-.44.05-.29-.15-.57-.44-.62Z"/>
  <path class="b" d="m237.31,0c7.05,22.07,10.86,45.59,10.86,70,0,48.25-14.87,93.02-40.25,130"/>
</svg>