<?xml version="1.0" encoding="UTF-8"?>
<svg enable-background="new 0 0 300 300" viewBox="0 0 300 300" xmlns="http://www.w3.org/2000/svg">
 <path d="m62.059,0h7.389c-14.189,22.421-27.933,45.296-38.236,69.818 27.97-5.138 56.371-8.01 84.802-8.632 7.619.275 15.225-.888 22.835-.124 10.127.184 20.254.403 30.377.791 4.973-20.639 10.04-41.258 15.178-61.853h6.309c-6.996,28.05-13.83,56.145-20.689,84.231 6.437-.383 12.956-.67 19.324.577 3.873,2.827 4.112,9.677-.521,12.002-6.774,3.253-15.116,3.273-22.122.676-.409,1.683-.83,3.362-1.246,5.045 6.141,3.575 12.295,7.171 18.645,10.355 9.551,3.202 19.754,5.028 29.838,4.247 5.043-1.756 10.146-4.309 13.432-8.669 3.393-4.132 1.967-9.993 4.422-14.557 1.404-3.478 4.978-6.695 8.972-5.677 2.668.99 5.561,2.42 6.791,5.16 2.333,4.598 1.792,10.021.563,14.855-2.194,8.214-7.135,16.27-15.209,19.76-12.15,5.374-26.07,3.382-38.4-.327-11.611-3.004-22.189-9.286-30.981-17.366-11.964,49.834-24.636,99.509-36.409,149.383 2.82-1.415 3.768-4.623 5.375-7.107 4.923-8.242 9.365-16.754 13.949-25.186 10.375-19.254 21.259-38.232 31.255-57.688 4.427-7.212 9.852-16.298 19.246-16.903 4.324-.959 8.365,2.991 8.375,7.217 .199,5.176-1.533,10.188-3.498,14.902-5.404,12.428-14.428,22.715-22.957,33.063-15.454,16.979-28.353,36.515-46.469,50.899 46.971-3.748 94.072-9.472 139.576-22.097 4.236-1.052 8.355-3.148 12.832-2.618 .428,1.225 1.389,2.395 1.098,3.773-.056,2.651-3.237,3.088-5.177,3.852-52.997,15.41-108.146,21.586-163.056,25.203-38.709,2.296-77.479,3.528-116.255,3.621-.095-2.309-.18-4.617-.247-6.921 39.806-.292 79.606-1.491 119.342-3.954 2.313-8.421 4.194-16.951 6.355-25.41-9.303.328-18.616.43-27.919.059-20.797-.867-42.302-3.475-60.78-13.753-15.216-8.236-26.249-23.13-30.925-39.661-3.546-24.25-2.021-49.171 4.079-72.896 9.85-38.892 29.459-74.4 50.737-108.09z" fill="none" stroke="#000" stroke-miterlimit="10" stroke-width=".1"/>
 <path d="m62.059,0h7.389c-14.189,22.421-27.933,45.296-38.236,69.818 27.97-5.138 56.371-8.01 84.802-8.632 7.619.275 15.225-.888 22.835-.124 10.127.184 20.254.403 30.377.791 4.973-20.639 10.04-41.258 15.178-61.853h6.309c-6.996,28.05-13.83,56.145-20.689,84.231 6.437-.383 12.956-.67 19.324.577 3.873,2.827 4.112,9.677-.521,12.002-6.774,3.253-15.116,3.273-22.122.676-.409,1.683-.83,3.362-1.246,5.045 6.141,3.575 12.295,7.171 18.645,10.355 9.551,3.202 19.754,5.028 29.838,4.247 5.043-1.756 10.146-4.309 13.432-8.669 3.393-4.132 1.967-9.993 4.422-14.557 1.404-3.478 4.978-6.695 8.972-5.677 2.668.99 5.561,2.42 6.791,5.16 2.333,4.598 1.792,10.021.563,14.855-2.194,8.214-7.135,16.27-15.209,19.76-12.15,5.374-26.07,3.382-38.4-.327-11.611-3.004-22.189-9.286-30.981-17.366-11.964,49.834-24.636,99.509-36.409,149.383 2.82-1.415 3.768-4.623 5.375-7.107 4.923-8.242 9.365-16.754 13.949-25.186 10.375-19.254 21.259-38.232 31.255-57.688 4.427-7.212 9.852-16.298 19.246-16.903 4.324-.959 8.365,2.991 8.375,7.217 .199,5.176-1.533,10.188-3.498,14.902-5.404,12.428-14.428,22.715-22.957,33.063-15.454,16.979-28.353,36.515-46.469,50.899 46.971-3.748 94.072-9.472 139.576-22.097 4.236-1.052 8.355-3.148 12.832-2.618 .428,1.225 1.389,2.395 1.098,3.773-.056,2.651-3.237,3.088-5.177,3.852-52.997,15.41-108.146,21.586-163.056,25.203-38.709,2.296-77.479,3.528-116.255,3.621-.095-2.309-.18-4.617-.247-6.921 39.806-.292 79.606-1.491 119.342-3.954 2.313-8.421 4.194-16.951 6.355-25.41-9.303.328-18.616.43-27.919.059-20.797-.867-42.302-3.475-60.78-13.753-15.216-8.236-26.249-23.13-30.925-39.661-3.546-24.25-2.021-49.171 4.079-72.896 9.85-38.892 29.459-74.4 50.737-108.09z"/>
 <path d="m69.448,0h114.957c-5.139,20.595-10.205,41.214-15.178,61.852-10.123-.387-20.25-.606-30.377-.791-7.61-.764-15.216.399-22.835.124-28.431.622-56.832,3.494-84.802,8.632 10.302-24.521 24.046-47.396 38.235-69.817z" fill="none" stroke="#fff" stroke-miterlimit="10" stroke-width=".1"/>
 <path d="m69.448,0h114.957c-5.139,20.595-10.205,41.214-15.178,61.852-10.123-.387-20.25-.606-30.377-.791-7.61-.764-15.216.399-22.835.124-28.431.622-56.832,3.494-84.802,8.632 10.302-24.521 24.046-47.396 38.235-69.817z" fill="#fff"/>
 <path d="m211.6 36.885c7.243-0.68 14.907 2.296 19.447 8.065 3.184 3.58 4.564 8.352 5.11 13.019-0.209 7.213-3.87 14.27-9.926 18.28-5.937 3.785-13.672 4.84-20.258 2.153-11.164-3.774-17.758-18.035-12.16-28.719 3.071-7.129 10.184-11.87 17.787-12.798z" fill="none" stroke="#000" stroke-miterlimit="10" stroke-width=".1"/>
 <path d="m211.6 36.885c7.243-0.68 14.907 2.296 19.447 8.065 3.184 3.58 4.564 8.352 5.11 13.019-0.209 7.213-3.87 14.27-9.926 18.28-5.937 3.785-13.672 4.84-20.258 2.153-11.164-3.774-17.758-18.035-12.16-28.719 3.071-7.129 10.184-11.87 17.787-12.798z"/>
 <path d="m119.948,67.18c15.873-.63 31.761.257 47.646.708-3.455,15.142-7.427,30.162-10.978,45.282-.202,1.132-.589,2.223-1.238,3.179-7.685-1.217-15.526-.767-23.281-1.159-7.427.223-14.847-.94-22.262-.082-32.037.107-64.093,3.14-95.57,9.109 2.714-15.711 7.41-31.041 13.35-45.818 .332-2.156 2.802-1.881 4.378-2.394 29.01-5.394 58.441-8.479 87.955-8.825z" fill="none" stroke="#fff" stroke-miterlimit="10" stroke-width=".1"/>
 <path d="m119.948,67.18c15.873-.63 31.761.257 47.646.708-3.455,15.142-7.427,30.162-10.978,45.282-.202,1.132-.589,2.223-1.238,3.179-7.685-1.217-15.526-.767-23.281-1.159-7.427.223-14.847-.94-22.262-.082-32.037.107-64.093,3.14-95.57,9.109 2.714-15.711 7.41-31.041 13.35-45.818 .332-2.156 2.802-1.881 4.378-2.394 29.01-5.394 58.441-8.479 87.955-8.825z" fill="#fff"/>
 <path d="m111.1,121.088c5.953-.793 11.909.328 17.875.091 8.481.288 17.002.096 25.44,1.125-8.836,35.32-17.354,70.721-26.119,106.059-12.455.205-24.943.627-37.363-.586-19.554-1.407-40.005-4.928-56.2-16.737-10.901-7.915-18.536-20.039-21.638-33.087-1.866-15.605-2.213-31.512.235-47.08 32.132-6.646 64.974-9.581 97.77-9.785z" fill="none" stroke="#fff" stroke-miterlimit="10" stroke-width=".1"/>
 <path d="m111.1,121.088c5.953-.793 11.909.328 17.875.091 8.481.288 17.002.096 25.44,1.125-8.836,35.32-17.354,70.721-26.119,106.059-12.455.205-24.943.627-37.363-.586-19.554-1.407-40.005-4.928-56.2-16.737-10.901-7.915-18.536-20.039-21.638-33.087-1.866-15.605-2.213-31.512.235-47.08 32.132-6.646 64.974-9.581 97.77-9.785z" fill="#fff"/>
 <path d="m191.445,265.719c10.482-1.996 20.844,1.963 30.04,6.641 9.052,3.945 18.206,10.374 28.583,8.406 13.112-1.83 22.061-13.457 34.908-16.025 2.617-.996 5.602,1.785 4.275,4.417-1.844,2.321-5.307,1.774-7.755,3.163-10.442,4.938-19.478,13.553-31.452,14.674-11.479,1.773-21.778-4.577-31.768-9.178-8.488-4.518-18.499-8.473-28.136-5.338-9.283,1.984-17.077,7.797-26.002,10.77-9.463,3.963-20.731,4.236-30.048-.32-8.527-3.93-17.425-9.528-27.225-7.656-7.699.609-14.741,3.907-21.96,6.344-2.187.835-4.941,2.12-7.063.438-1.597-1.682-.224-4.73 1.958-5.144 11.509-4.432 23.666-9.555 36.263-7.689 11.7,1.459 20.897,11.201 32.963,10.971 15.461-.32 27.509-11.964 42.419-14.474z" fill="none" stroke="#000" stroke-miterlimit="10" stroke-width=".1"/>
 <path d="m191.445,265.719c10.482-1.996 20.844,1.963 30.04,6.641 9.052,3.945 18.206,10.374 28.583,8.406 13.112-1.83 22.061-13.457 34.908-16.025 2.617-.996 5.602,1.785 4.275,4.417-1.844,2.321-5.307,1.774-7.755,3.163-10.442,4.938-19.478,13.553-31.452,14.674-11.479,1.773-21.778-4.577-31.768-9.178-8.488-4.518-18.499-8.473-28.136-5.338-9.283,1.984-17.077,7.797-26.002,10.77-9.463,3.963-20.731,4.236-30.048-.32-8.527-3.93-17.425-9.528-27.225-7.656-7.699.609-14.741,3.907-21.96,6.344-2.187.835-4.941,2.12-7.063.438-1.597-1.682-.224-4.73 1.958-5.144 11.509-4.432 23.666-9.555 36.263-7.689 11.7,1.459 20.897,11.201 32.963,10.971 15.461-.32 27.509-11.964 42.419-14.474z"/>
</svg>
